PathFileType	4	(X/Y/Z)	/home/abdul/Desktop/myosuite/custom_workspace/IK/output/S11_12_3.trc
DataRate	CameraRate	NumFrames	NumMarkers	Units	OrigDataRate	OrigDataStartFrame	OrigNumFrames
200.0	200.0	22	3	mm	200.0	248	1976
Frame#	Time	V_Shoulder			V_Elbow			V_Wrist		
		X1	Y1	Z1	X2	Y2	Z2	X3	Y3	Z3

248	1.235	-94.21921915842671	559.4621483021389	278.6617340419784	-245.28465280247624	375.28916189305403	27.97279683319921	-117.37898317758956	157.9550527857504	72.80610902860865
249	1.24	-94.13273969722691	559.2110071019484	278.67493803198755	-245.22749536578934	375.18292897415085	27.95610761564563	-117.13944406662662	157.83442658040235	72.6825445831248
250	1.245	-94.04798235918224	558.9613957178491	278.6872523696773	-245.17206937880866	375.0781605271503	27.93893067908492	-116.9047393848853	157.71488651660962	72.55690040525448
251	1.25	-93.96496748134683	558.7133282523664	278.69865178186024	-245.11833229568342	374.97482225731704	27.921241117147254	-116.6747546100667	157.59635026693167	72.42911289819975
252	1.255	-93.88371377876285	558.4668175964778	278.70911309649165	-245.06624337229303	374.87288084100675	27.903016650955486	-116.44938111630753	157.47873805222935	72.29912367355028
253	1.26	-93.80423832001065	558.2218755482523	278.71861527522293	-245.01576365143407	374.7723039560649	27.88423762032162	-116.22851604093981	157.36197284146402	72.16687971964096
254	1.265	-93.72655650550372	557.9785129323623	278.72713943823845	-244.96685593983833	374.67306030914233	27.864886964193076	-116.01206213220733	157.2459805422322	72.03233354723092
255	1.27	-93.65068204850535	557.7367397200711	278.73466888155457	-244.91948477759553	374.57511966005484	27.84495019106841	-115.79992757976022	157.13069018164805	71.8954433133324
256	1.275	-93.57662695883907	557.4965651493058	278.7411890869792	-244.87361640056565	374.47845284331186	27.82441534012671	-115.59202582974629	157.01603407720984	71.75617292406424
257	1.28	-93.50440152926133	557.2579978444261	278.7466877249531	-244.8292186963729	374.38303178694184	27.803272933832858	-115.38827538630824	156.90194799730972	71.61449211744338
258	1.285	-93.43401432446029	557.0210459353154	278.751154650513	-244.78626115457692	374.28882952873744	27.78151592279162	-115.18859960127543	156.78837131107193	71.47037652705424
259	1.29	-93.36547217264145	556.7857171754217	278.7545818926355	-244.7447148116154	374.1958202300443	27.759139623628442	-114.9929264538103	156.67524712722863	71.32380772755565
260	1.295	-93.29878015965818	556.552019058391	278.7569636372344	-244.70455219110815	374.10397918721674	27.736141650672696	-114.80118832173312	156.56252242176913	71.17477326299294
261	1.3	-93.23394162564195	556.3199589329416	278.75829620410013	-244.66574724010434	374.0132828408564	27.712521842211366	-114.61332174620509	156.4501481541246	71.02326665888562
262	1.305	-93.17095816408556	556.0895441156418	278.75857801807854	-244.62827526184364	373.9237087829514	27.688282182067468	-114.42926719139777	156.33807937167705	70.86928741905294
263	1.31	-93.10982962333064	555.8607820012621	278.75780957479986	-244.5921128455864	373.83523576202754	27.66342671723811	-114.24896880072122	156.2262753024092	70.71284100812754
264	1.315	-93.05055411040962	555.6336801703865	278.7559934012733	-244.55723779405153	373.74784368641946	27.63796147230336	-114.07237415111862	156.1146994355404	70.55393882068529
265	1.32	-92.99312799719091	555.4082464939806	278.75313401167114	-244.52362904898132	373.66151362576556	27.61189436128751	-113.89943400686894	156.00331959002256	70.39259813789434
266	1.325	-92.93754592877603	555.1844892346262	278.74923785862865	-244.49126661532964	373.5762278108275	27.585235097621975	-113.73010207426586	155.8921079707998	70.22884207255397
267	1.33	-92.88380083409686	554.9624171441424	278.7443132803898	-244.46013148454668	373.49196963172835	27.557995102822005	-113.56433475846596	155.7810412127654	70.06269950335762
268	1.335	-92.8318839386609	554.7420395573349	278.7383704441286	-244.4302055574081	373.4087236347	27.530187414449657	-113.40209092372041	155.67010041238132	69.89420499917348
269	1.34	-92.78178477939367	554.523366481621	278.73142128577575	-244.40147156680973	373.3264755174265	27.501826593892865	-113.24333165812226	155.55927114695606	69.72339873409243
